<svg width="1000" height="1085" viewBox="0 0 1000 1085" fill="none" xmlns="http://www.w3.org/2000/svg">
<path d="M830.029 801.7V8.50012H716.715V801.7H546.743L773.372 1084.99L1000 801.7H830.029Z" fill="#ECE8E8"/>
<path d="M297.45 433.427H8.49858V376.77L144.476 232.294C155.807 220.963 164.306 209.631 169.971 201.133C175.637 192.634 184.136 184.136 186.969 175.637C192.634 167.139 195.467 161.473 195.467 152.974C198.3 147.309 198.3 138.81 198.3 133.144C198.3 113.314 192.634 99.15 184.136 87.8186C175.637 76.4872 161.473 70.8214 144.476 70.8214C135.977 70.8214 124.646 73.6543 118.98 76.4872C110.481 79.32 104.816 84.9857 99.15 90.6514C93.4843 96.3172 90.6514 104.816 87.8186 113.314C84.9857 121.813 84.9857 130.311 84.9857 141.643H0C0 121.813 2.83287 104.816 11.3314 87.8186C16.9972 70.8214 28.3286 56.6571 39.66 42.4929C53.8243 31.1614 67.9886 19.83 84.9857 11.3314C101.983 2.83286 124.646 0 147.309 0C169.971 0 189.801 2.83286 206.799 8.49858C223.796 14.1643 237.96 22.6629 249.291 31.1614C260.623 39.66 269.121 53.8243 274.787 67.9886C280.453 82.1529 283.286 99.15 283.286 118.98C283.286 133.144 280.453 147.309 277.62 158.64C274.787 169.971 266.289 184.136 257.79 198.3C249.291 212.464 240.793 223.796 229.461 237.96C218.13 252.124 203.966 266.289 189.801 280.453L116.147 359.773H297.45V433.427V433.427Z" fill="#ECE8E8"/>
<path d="M212.464 1084.99H127.478V762.039L28.3284 793.201V725.212L203.966 662.889H212.464V1084.99Z" fill="#ECE8E8"/>
</svg>
