<svg width="1000" height="1086" viewBox="0 0 1000 1086" fill="none" xmlns="http://www.w3.org/2000/svg">
<path d="M830.029 291.786V1084.99H716.715V291.786H546.743L773.372 8.50011L1000 291.786H830.029Z" fill="#ECE8E8"/>
<path d="M297.45 1085.43H8.49858V1028.77L144.476 884.294C155.807 872.963 164.306 861.631 169.971 853.133C175.637 844.634 184.136 836.136 186.969 827.637C192.634 819.139 195.467 813.473 195.467 804.974C198.3 799.309 198.3 790.81 198.3 785.144C198.3 765.314 192.634 751.15 184.136 739.819C175.637 728.487 161.473 722.821 144.476 722.821C135.977 722.821 124.646 725.654 118.98 728.487C110.481 731.32 104.816 736.986 99.15 742.651C93.4843 748.317 90.6514 756.816 87.8186 765.314C84.9857 773.813 84.9857 782.311 84.9857 793.643H0C0 773.813 2.83287 756.816 11.3314 739.819C16.9972 722.821 28.3286 708.657 39.66 694.493C53.8243 683.161 67.9886 671.83 84.9857 663.331C101.983 654.833 124.646 652 147.309 652C169.971 652 189.801 654.833 206.799 660.499C223.796 666.164 237.96 674.663 249.291 683.161C260.623 691.66 269.121 705.824 274.787 719.989C280.453 734.153 283.286 751.15 283.286 770.98C283.286 785.144 280.453 799.309 277.62 810.64C274.787 821.971 266.289 836.136 257.79 850.3C249.291 864.464 240.793 875.796 229.461 889.96C218.13 904.124 203.966 918.289 189.801 932.453L116.147 1011.77H297.45V1085.43V1085.43Z" fill="#ECE8E8"/>
<path d="M212.136 422.096H127.15V99.15L28 130.311V62.3228L203.637 0H212.136V422.096Z" fill="#ECE8E8"/>
</svg>
